<svg width="13" height="18" viewBox="0 0 13 18" fill="none" xmlns="http://www.w3.org/2000/svg">
<path d="M0.943025 9.93956C0.943025 8.01066 0.950252 6.08177 0.935059 4.15142C0.935059 3.82656 1.03347 3.74625 1.34603 3.7477C4.78225 3.75686 8.21848 3.75686 11.6547 3.7477C11.9933 3.7477 12.0758 3.85116 12.0743 4.17819C12.0642 8.00054 12.0693 11.8222 12.0671 15.6445C12.0671 16.9034 11.3219 17.6515 10.0716 17.653C7.685 17.653 5.29739 17.653 2.90882 17.653C1.69692 17.653 0.945919 16.9041 0.943025 15.6915C0.938684 13.7742 0.943025 11.8569 0.943025 9.93956Z" fill="#ABBDBD"/>
<path d="M12.9976 0.971585C12.9976 1.54316 13.0077 2.05686 12.9867 2.57345C12.9867 2.65159 12.842 2.7348 12.753 2.79051C12.711 2.81873 12.6351 2.7963 12.575 2.7963C8.52718 2.7963 4.47885 2.79847 0.430048 2.80281C0.105913 2.80281 -0.0250362 2.73046 0.00390445 2.38534C0.0307835 2.02408 0.0307835 1.66132 0.00390445 1.30006C-0.014907 1.01644 0.0972305 0.957114 0.357697 0.960732C1.32142 0.973755 2.28515 0.953497 3.25177 0.972308C3.57952 0.97882 3.84434 0.912256 4.03751 0.64166C4.40796 0.123622 4.89705 -0.0377221 5.53302 0.007136C6.33612 0.0642939 7.14646 0.0302882 7.95391 0.0158179C8.22667 0.0107532 8.45459 0.0577822 8.61738 0.288584C9.024 0.867398 9.57386 1.02802 10.2713 0.980267C11.1555 0.926003 12.049 0.971585 12.9976 0.971585Z" fill="#ABBDBD"/>
</svg>
