<svg width="34" height="39" viewBox="0 0 34 39" fill="none" xmlns="http://www.w3.org/2000/svg">
<path d="M2.42857 0H23.0627L34 10.8946V36.4286C34 37.0727 33.7441 37.6904 33.2887 38.1458C32.8332 38.6013 32.2155 38.8571 31.5714 38.8571H2.42857C1.78447 38.8571 1.16676 38.6013 0.711312 38.1458C0.255866 37.6904 0 37.0727 0 36.4286V2.42857C0 1.78447 0.255866 1.16676 0.711312 0.711312C1.16676 0.255867 1.78447 0 2.42857 0Z" fill="#1976D2"/>
<path d="M33.9645 10.9286H25.5C24.8559 10.9286 24.2382 10.6727 23.7827 10.2173C23.3273 9.76182 23.0714 9.1441 23.0714 8.50001V0.024292L33.9645 10.9286Z" fill="#085DA3"/>
<path d="M12.4571 24.4362L9.34605 14.6025C9.33178 14.5574 9.32834 14.5095 9.33602 14.4628C9.34369 14.4161 9.36226 14.3719 9.39021 14.3337C9.41817 14.2955 9.45474 14.2645 9.49694 14.2431C9.53914 14.2217 9.58579 14.2105 9.63311 14.2105H11.6775C11.7433 14.2101 11.8074 14.2313 11.86 14.2707C11.9126 14.3102 11.9509 14.3658 11.9689 14.4291L13.5606 19.9954C13.5789 20.0586 13.6174 20.1142 13.6702 20.1535C13.7231 20.1928 13.7874 20.2137 13.8532 20.213C13.9191 20.2123 13.9829 20.19 14.0349 20.1495C14.0869 20.1091 14.1241 20.0527 14.141 19.989L15.6016 14.4349C15.6185 14.3705 15.6562 14.3135 15.709 14.2729C15.7617 14.2323 15.8264 14.2104 15.893 14.2105H18.0899C18.1567 14.2106 18.2217 14.2329 18.2744 14.274C18.3272 14.3151 18.3648 14.3725 18.3813 14.4373L19.7899 19.9808C19.8055 20.0456 19.8422 20.1034 19.8943 20.1451C19.9463 20.1869 20.0107 20.2101 20.0774 20.2113C20.144 20.2125 20.2092 20.1915 20.2627 20.1516C20.3161 20.1117 20.3549 20.0552 20.3727 19.991L21.9926 14.4257C22.0109 14.3632 22.0489 14.3083 22.101 14.2692C22.1531 14.2302 22.2165 14.2091 22.2816 14.209H24.3648C24.4122 14.2091 24.4589 14.2203 24.5012 14.2418C24.5434 14.2633 24.58 14.2945 24.6079 14.3327C24.6358 14.371 24.6543 14.4154 24.6619 14.4622C24.6694 14.5089 24.6658 14.5569 24.6514 14.602L21.4943 24.4362C21.4747 24.4969 21.4365 24.5498 21.385 24.5873C21.3335 24.6249 21.2714 24.6451 21.2077 24.6451H19.0045C18.9382 24.6451 18.8737 24.6232 18.821 24.5829C18.7684 24.5427 18.7304 24.4862 18.7131 24.4222L17.2705 19.0293C17.2537 18.9648 17.216 18.9077 17.1632 18.8669C17.1105 18.8261 17.0457 18.804 16.9791 18.804C16.9124 18.804 16.8476 18.8261 16.7949 18.8669C16.7421 18.9077 16.7044 18.9648 16.6876 19.0293L15.2664 24.4207C15.2495 24.485 15.2117 24.542 15.159 24.5826C15.1062 24.6232 15.0415 24.6452 14.975 24.6451H12.7446C12.6807 24.6453 12.6184 24.6252 12.5667 24.5876C12.515 24.5501 12.4766 24.4971 12.4571 24.4362Z" fill="white"/>
</svg>
