<svg width="34" height="39" viewBox="0 0 34 39" fill="none" xmlns="http://www.w3.org/2000/svg">
<path d="M2.42855 0H23.0629L34 10.8946V36.4287C34 37.7704 32.9121 38.8572 31.5714 38.8572H2.42855C1.08794 38.8572 0 37.7704 0 36.4287V2.42855C0 1.08681 1.08807 0 2.42855 0Z" fill="#E2574C"/>
<path d="M33.965 10.9285H25.5002C24.1596 10.9285 23.0717 9.84059 23.0717 8.49998V0.024231L33.965 10.9285Z" fill="#B53629"/>
<path d="M24.8905 18.4122C25.2974 18.4122 25.4965 18.0576 25.4965 17.714C25.4965 17.3582 25.2888 17.0145 24.8905 17.0145H22.5737C22.1207 17.0145 21.8682 17.3897 21.8682 17.8038V23.4976C21.8682 24.0052 22.1572 24.2869 22.5482 24.2869C22.9368 24.2869 23.227 24.0052 23.227 23.4976V21.9348H24.6283C25.063 21.9348 25.2804 21.579 25.2804 21.2257C25.2804 20.8797 25.063 20.5359 24.6283 20.5359H23.227V18.4122H24.8905ZM17.0596 17.0145H15.3644C14.9042 17.0145 14.5775 17.3303 14.5775 17.7989V23.5025C14.5775 24.0841 15.0474 24.2663 15.3837 24.2663H17.1627C19.2683 24.2663 20.6586 22.8808 20.6586 20.7424C20.6575 18.4814 19.3485 17.0145 17.0596 17.0145ZM17.141 22.8602H16.1076V18.4207H17.039C18.4488 18.4207 19.0619 19.3667 19.0619 20.672C19.0619 21.8936 18.4596 22.8602 17.141 22.8602ZM10.9311 17.0145H9.25174C8.77694 17.0145 8.51221 17.3278 8.51221 17.8038V23.4976C8.51221 24.0052 8.81576 24.2869 9.22372 24.2869C9.63169 24.2869 9.93524 24.0052 9.93524 23.4976V21.8352H10.988C12.2873 21.8352 13.3595 20.9147 13.3595 19.4345C13.3596 17.986 12.3251 17.0145 10.9311 17.0145ZM10.9032 20.4996H9.93536V18.3515H10.9032C11.5006 18.3515 11.8807 18.8178 11.8807 19.4261C11.8794 20.0334 11.5006 20.4996 10.9032 20.4996Z" fill="white"/>
</svg>
